<svg width="33" height="32" viewBox="0 0 33 32" fill="none" xmlns="http://www.w3.org/2000/svg">
<path d="M20.6667 22.6666H27.3333L25.46 20.7933C25.2084 20.5417 25.0089 20.243 24.8728 19.9142C24.7366 19.5855 24.6666 19.2331 24.6667 18.8773V14.6666C24.6669 13.0119 24.1541 11.3978 23.199 10.0465C22.2438 8.69522 20.8933 7.67325 19.3333 7.1213V6.66664C19.3333 5.95939 19.0524 5.28111 18.5523 4.78102C18.0522 4.28092 17.3739 3.99997 16.6667 3.99997C15.9594 3.99997 15.2811 4.28092 14.781 4.78102C14.281 5.28111 14 5.95939 14 6.66664V7.1213C10.8933 8.21997 8.66667 11.184 8.66667 14.6666V18.8786C8.66667 19.596 8.38133 20.2853 7.87333 20.7933L6 22.6666H12.6667M20.6667 22.6666V24C20.6667 25.0608 20.2452 26.0783 19.4951 26.8284C18.7449 27.5785 17.7275 28 16.6667 28C15.6058 28 14.5884 27.5785 13.8382 26.8284C13.0881 26.0783 12.6667 25.0608 12.6667 24V22.6666M20.6667 22.6666H12.6667" stroke="#7F7F7F" stroke-width="2.66667" stroke-linecap="round" stroke-linejoin="round"/>
</svg>
