<svg width="32" height="32" viewBox="0 0 32 32" fill="none" xmlns="http://www.w3.org/2000/svg">
<path d="M27.7256 21.993C27.0319 20.798 26.0006 17.4168 26.0006 13.0005C26.0006 10.3484 24.9471 7.80485 23.0717 5.92948C21.1963 4.05412 18.6528 3.00055 16.0006 3.00055C13.3485 3.00055 10.8049 4.05412 8.92956 5.92948C7.05419 7.80485 6.00063 10.3484 6.00063 13.0005C6.00063 17.418 4.96813 20.798 4.27438 21.993C4.09721 22.2969 4.00329 22.642 4.00209 22.9937C4.00088 23.3454 4.09243 23.6912 4.2675 23.9962C4.44257 24.3012 4.69498 24.5546 4.99926 24.731C5.30354 24.9073 5.64894 25.0003 6.00063 25.0005H11.1019C11.3326 26.1295 11.9462 27.1441 12.8388 27.8728C13.7314 28.6014 14.8483 28.9994 16.0006 28.9994C17.1529 28.9994 18.2698 28.6014 19.1625 27.8728C20.0551 27.1441 20.6687 26.1295 20.8994 25.0005H26.0006C26.3522 25.0001 26.6974 24.9069 27.0016 24.7305C27.3057 24.5541 27.5579 24.3006 27.7328 23.9956C27.9077 23.6906 27.9992 23.3449 27.9979 22.9934C27.9967 22.6418 27.9027 22.2968 27.7256 21.993ZM16.0006 27.0005C15.3804 27.0004 14.7755 26.8079 14.2691 26.4498C13.7628 26.0916 13.3799 25.5853 13.1731 25.0005H18.8281C18.6214 25.5853 18.2385 26.0916 17.7321 26.4498C17.2258 26.8079 16.6209 27.0004 16.0006 27.0005ZM6.00063 23.0005C6.96313 21.3455 8.00063 17.5105 8.00063 13.0005C8.00063 10.8788 8.84348 8.84399 10.3438 7.3437C11.8441 5.8434 13.8789 5.00055 16.0006 5.00055C18.1224 5.00055 20.1572 5.8434 21.6575 7.3437C23.1578 8.84399 24.0006 10.8788 24.0006 13.0005C24.0006 17.5068 25.0356 21.3418 26.0006 23.0005H6.00063Z" fill="black"/>
<circle cx="22.0021" cy="5.99994" r="3.5" fill="#DC1010" stroke="white"/>
</svg>
