<svg width="33" height="33" viewBox="0 0 33 33" fill="none" xmlns="http://www.w3.org/2000/svg">
<path d="M4.66669 16.6666L7.33335 14M7.33335 14L16.6667 4.66663L26 14M7.33335 14V27.3333C7.33335 27.6869 7.47383 28.0261 7.72388 28.2761C7.97393 28.5262 8.31307 28.6666 8.66669 28.6666H12.6667M26 14L28.6667 16.6666M26 14V27.3333C26 27.6869 25.8595 28.0261 25.6095 28.2761C25.3594 28.5262 25.0203 28.6666 24.6667 28.6666H20.6667M12.6667 28.6666C13.0203 28.6666 13.3594 28.5262 13.6095 28.2761C13.8595 28.0261 14 27.6869 14 27.3333V22C14 21.6463 14.1405 21.3072 14.3905 21.0572C14.6406 20.8071 14.9797 20.6666 15.3334 20.6666H18C18.3536 20.6666 18.6928 20.8071 18.9428 21.0572C19.1929 21.3072 19.3334 21.6463 19.3334 22V27.3333C19.3334 27.6869 19.4738 28.0261 19.7239 28.2761C19.9739 28.5262 20.3131 28.6666 20.6667 28.6666M12.6667 28.6666H20.6667" stroke="#7F7F7F" stroke-width="2.66667" stroke-linecap="round" stroke-linejoin="round"/>
</svg>
