<svg width="24" height="24" viewBox="0 0 24 24" fill="none" xmlns="http://www.w3.org/2000/svg">
<g clip-path="url(#clip0_1_51)">
<path d="M12 0.75C9.88129 0.751693 7.80612 1.35165 6.01337 2.4808H17.9702C16.1822 1.35461 14.1131 0.754774 12 0.75Z" fill="#B22234"/>
<path d="M6.01337 2.48083C5.24109 2.96973 4.53126 3.55092 3.8996 4.21155H20.1137C19.4728 3.54901 18.7529 2.96775 17.9702 2.48083H6.01337Z" fill="white"/>
<path d="M3.89957 4.21155C3.38896 4.7424 2.93171 5.32212 2.53442 5.94235H21.4784C21.0812 5.32214 20.6241 4.74242 20.1136 4.21155H3.89957Z" fill="#B22234"/>
<path d="M2.53448 5.94232C2.1794 6.4915 1.87288 7.0706 1.61841 7.67303H22.3734C22.1257 7.07133 21.8263 6.49226 21.4785 5.94232H2.53448Z" fill="white"/>
<path d="M1.61838 7.67303C1.38803 8.23415 1.20344 8.81297 1.06641 9.40384H22.9328C22.7933 8.81275 22.6063 8.23392 22.3734 7.67303H1.61838Z" fill="#B22234"/>
<path d="M1.06644 9.40381C0.930543 9.97277 0.839233 10.5515 0.793335 11.1346H23.2134C23.165 10.5513 23.0712 9.97256 22.9328 9.40381H1.06644Z" fill="white"/>
<path d="M0.793304 11.1348C0.767763 11.4226 0.753317 11.7112 0.75 12.0001C0.751095 12.2889 0.763311 12.5776 0.786621 12.8655H23.2067C23.2322 12.5777 23.2467 12.289 23.25 12.0001C23.2489 11.7113 23.2367 11.4226 23.2134 11.1348H0.793304Z" fill="#B22234"/>
<path d="M0.786621 12.8652C0.834987 13.4486 0.928808 14.0273 1.06723 14.596H22.9336C23.0695 14.0271 23.1608 13.4484 23.2067 12.8652H0.786621Z" fill="white"/>
<path d="M1.06726 14.5962C1.2067 15.1873 1.39377 15.7661 1.62665 16.327H22.3817C22.612 15.7659 22.7966 15.1871 22.9336 14.5962H1.06726Z" fill="#B22234"/>
<path d="M1.62659 16.327C1.87428 16.9287 2.17372 17.5077 2.52151 18.0577H21.4655C21.8206 17.5085 22.1271 16.9294 22.3816 16.327H1.62659Z" fill="white"/>
<path d="M2.52155 18.0577C2.91872 18.6779 3.37584 19.2576 3.88632 19.7885H20.1004C20.611 19.2576 21.0683 18.6779 21.4655 18.0577H2.52155Z" fill="#B22234"/>
<path d="M3.88635 19.7885C4.52723 20.451 5.2471 21.0323 6.02979 21.5192H17.9867C18.7589 21.0303 19.4688 20.4491 20.1004 19.7885H3.88635Z" fill="white"/>
<path d="M6.02979 21.5192C7.81782 22.6454 9.88689 23.2452 12 23.25C14.1187 23.2483 16.1939 22.6483 17.9867 21.5192H6.02979Z" fill="#B22234"/>
<path d="M12 0.75C9.01631 0.75 6.15483 1.93526 4.04505 4.04505C1.93526 6.15483 0.75 9.01631 0.75 12C0.751472 12.2973 0.764727 12.5944 0.789734 12.8906H12.8906V0.794586C12.5945 0.767959 12.2973 0.753086 12 0.75Z" fill="#3C3B6E"/>
<path d="M7.98041 1.50978C7.83045 1.56432 7.68166 1.62204 7.53416 1.68291L7.69834 1.80799L7.58676 2.16702L7.88146 1.94756L8.18422 2.17827L8.07087 1.80643L8.37419 1.58057L8.00184 1.58012L7.98041 1.50978ZM9.88908 1.20481L9.77173 1.58225L9.40068 1.58179L9.70075 1.81046L9.58915 2.16943L9.88383 1.94999L10.1866 2.1807L10.0733 1.80891L10.3766 1.58298L10.0042 1.58253L9.88908 1.20481ZM11.8915 1.20725L11.7741 1.58469L11.4031 1.58423L11.7031 1.8129L11.5915 2.17187L11.8862 1.95243L12.189 2.18314L12.0756 1.81135L12.3789 1.58542L12.0066 1.58497L11.8915 1.20725ZM5.08389 3.14505C5.03094 3.18444 4.97834 3.22429 4.92609 3.2646L5.17909 3.45745L5.08389 3.14505ZM6.88394 2.48398L6.76659 2.86141L6.39554 2.86096L6.69561 3.08962L6.58401 3.4486L6.87869 3.22916L7.18148 3.45987L7.06812 3.08808L7.37142 2.86215L6.99911 2.8617L6.88394 2.48398ZM8.88633 2.48642L8.76898 2.86385L8.39792 2.8634L8.698 3.09206L8.58639 3.45104L8.88108 3.2316L9.18386 3.46231L9.07051 3.09052L9.37381 2.86459L9.0015 2.86414L8.88633 2.48642ZM10.8887 2.48886L10.7714 2.86629L10.4003 2.86584L10.7004 3.0945L10.5888 3.45348L10.8835 3.23404L11.1862 3.46475L11.0729 3.09296L11.3762 2.86703L11.0039 2.86658L10.8887 2.48886ZM3.98472 4.1106C3.87361 4.22792 3.76504 4.34763 3.65908 4.46964L3.57884 4.72772L3.87355 4.50826L4.1763 4.73897L4.06296 4.36722L4.36627 4.14127L3.99393 4.14082L3.98472 4.1106ZM5.88119 3.76554L5.76383 4.14297L5.39278 4.14252L5.69286 4.37118L5.58125 4.73016L5.87593 4.51071L6.17872 4.74142L6.06536 4.36964L6.36867 4.14371L5.99635 4.14325L5.88119 3.76554ZM7.88357 3.76798L7.76622 4.14541L7.39517 4.14496L7.69524 4.37362L7.58363 4.7326L7.87832 4.51315L8.1811 4.74386L8.06775 4.37208L8.37105 4.14615L7.99874 4.1457L7.88357 3.76798ZM9.88595 3.77042L9.7686 4.14785L9.39755 4.1474L9.69763 4.37606L9.58602 4.73504L9.8807 4.51559L10.1835 4.7463L10.0701 4.37452L10.3734 4.14859L10.0011 4.14814L9.88595 3.77042ZM11.8883 3.77286L11.771 4.15029L11.3999 4.14984L11.7 4.3785L11.5884 4.73748L11.8831 4.51803L12.1859 4.74874L12.0725 4.37696L12.3758 4.15103L12.0035 4.15058L11.8883 3.77286ZM2.96069 5.32224C2.85686 5.46025 2.75623 5.60064 2.65887 5.74329L2.57615 6.00933L2.87076 5.78987L3.17361 6.02059L3.06027 5.64884L3.36349 5.42289L2.99124 5.42244L2.96069 5.32224ZM4.87843 5.04715L4.76108 5.42458L4.39003 5.42413L4.6901 5.65279L4.57849 6.01177L4.87318 5.79232L5.17596 6.02303L5.06261 5.65125L5.36592 5.42532L4.9936 5.42486L4.87843 5.04715ZM6.88081 5.04959L6.76346 5.42702L6.39241 5.42657L6.69249 5.65523L6.58088 6.01421L6.87556 5.79476L7.17835 6.02547L7.06499 5.65369L7.3683 5.42776L6.99598 5.4273L6.88081 5.04959ZM8.8832 5.05203L8.76585 5.42946L8.39479 5.42901L8.69487 5.65767L8.58327 6.01665L8.87795 5.7972L9.18073 6.02791L9.06738 5.65613L9.37068 5.4302L8.99837 5.42974L8.8832 5.05203ZM10.8856 5.05447L10.7682 5.4319L10.3972 5.43145L10.6973 5.66011L10.5856 6.01909L10.8803 5.79964L11.1831 6.03035L11.0698 5.65857L11.3731 5.43264L11.0007 5.43218L10.8856 5.05447ZM2.08156 6.70417C2.01417 6.8301 1.94918 6.9573 1.88664 7.0857L2.17083 7.30221L2.05748 6.93045L2.3608 6.70451L2.08156 6.70417ZM3.87568 6.32875L3.75833 6.70619L3.38727 6.70574L3.68735 6.9344L3.57574 7.29338L3.87043 7.07393L4.17321 7.30464L4.05986 6.93286L4.36316 6.70692L3.99084 6.70647L3.87568 6.32875ZM5.87806 6.33119L5.76071 6.70863L5.38966 6.70818L5.68973 6.93684L5.57812 7.29582L5.8728 7.07637L6.17559 7.30708L6.06224 6.9353L6.36554 6.70936L5.99322 6.70891L5.87806 6.33119ZM7.88044 6.33363L7.76309 6.71107L7.39204 6.71062L7.69212 6.93928L7.58051 7.29826L7.87519 7.07881L8.17797 7.30952L8.06462 6.93774L8.36792 6.7118L7.99561 6.71135L7.88044 6.33363ZM9.88283 6.33607L9.76548 6.71351L9.39442 6.71306L9.6945 6.94172L9.58289 7.3007L9.87758 7.08125L10.1804 7.31196L10.067 6.94018L10.3703 6.71425L9.998 6.71379L9.88283 6.33607ZM11.8852 6.33851L11.7679 6.71595L11.3968 6.7155L11.6969 6.94416L11.5853 7.30314L11.88 7.08369L12.1827 7.3144L12.0694 6.94262L12.3727 6.71669L12.0004 6.71623L11.8852 6.33851ZM2.87292 7.61031L2.75557 7.98775L2.38452 7.98729L2.6846 8.21595L2.57299 8.57493L2.86767 8.35549L3.17045 8.5862L3.0571 8.21441L3.36041 7.98848L2.98809 7.98803L2.87292 7.61031ZM4.8753 7.61275L4.75795 7.99019L4.3869 7.98973L4.68698 8.21839L4.57537 8.57737L4.87005 8.35793L5.17284 8.58864L5.05948 8.21685L5.36279 7.99092L4.99047 7.99047L4.8753 7.61275ZM6.87769 7.61519L6.76034 7.99263L6.38929 7.99217L6.68936 8.22083L6.57775 8.57981L6.87244 8.36037L7.17522 8.59108L7.06187 8.21929L7.36517 7.99336L6.99286 7.99291L6.87769 7.61519ZM8.88007 7.61763L8.76272 7.99507L8.39167 7.99461L8.69175 8.22327L8.58014 8.58225L8.87482 8.36281L9.1776 8.59352L9.06425 8.22173L9.36756 7.9958L8.99524 7.99535L8.88007 7.61763ZM10.8825 7.62007L10.7651 7.99751L10.3941 7.99705L10.6941 8.22571L10.5825 8.58469L10.8772 8.36525L11.18 8.59596L11.0666 8.22417L11.3699 7.99824L10.9976 7.99779L10.8825 7.62007ZM1.87017 8.89192L1.75282 9.26935L1.38176 9.2689L1.68184 9.49756L1.57023 9.85654L1.86492 9.63709L2.1677 9.8678L2.05435 9.49602L2.35765 9.27009L1.98534 9.26964L1.87017 8.89192ZM3.87255 8.89436L3.7552 9.27179L3.38415 9.27134L3.68423 9.5L3.57262 9.85898L3.8673 9.63953L4.17008 9.87024L4.05673 9.49846L4.36003 9.27253L3.98772 9.27208L3.87255 8.89436ZM5.87493 8.8968L5.75758 9.27423L5.38653 9.27378L5.6866 9.50244L5.575 9.86142L5.86968 9.64197L6.17247 9.87268L6.05911 9.5009L6.36242 9.27497L5.9901 9.27452L5.87493 8.8968ZM7.87731 8.89924L7.75996 9.27667L7.38891 9.27622L7.68899 9.50488L7.57738 9.86386L7.87206 9.64441L8.17485 9.87512L8.06149 9.50334L8.3648 9.27741L7.99248 9.27696L7.87731 8.89924ZM9.8797 8.90168L9.76235 9.27911L9.3913 9.27866L9.69138 9.50732L9.57977 9.8663L9.87445 9.64685L10.1772 9.87756L10.0639 9.50578L10.3672 9.27985L9.99487 9.2794L9.8797 8.90168ZM11.8821 8.90412L11.7647 9.28155L11.3937 9.2811L11.6938 9.50976L11.5821 9.86874L11.8768 9.64929L12.1796 9.88L12.0663 9.50822L12.3696 9.28229L11.9972 9.28184L11.8821 8.90412ZM2.86979 10.176L2.75245 10.5534L2.38139 10.5529L2.68147 10.7816L2.56986 11.1406L2.86454 10.9211L3.16733 11.1519L3.05398 10.7801L3.35728 10.5541L2.98496 10.5537L2.86979 10.176ZM4.87218 10.1784L4.75483 10.5558L4.38377 10.5554L4.68385 10.7841L4.57224 11.143L4.86692 10.9236L5.16971 11.1543L5.05635 10.7825L5.35966 10.5566L4.98734 10.5561L4.87218 10.1784ZM6.87456 10.1808L6.75721 10.5583L6.38616 10.5578L6.68623 10.7865L6.57463 11.1455L6.86931 10.926L7.1721 11.1567L7.05874 10.7849L7.36204 10.559L6.98973 10.5586L6.87456 10.1808ZM8.87695 10.1833L8.7596 10.5607L8.38854 10.5603L8.68862 10.7889L8.57701 11.1479L8.8717 10.9285L9.17448 11.1592L9.06113 10.7874L9.36443 10.5615L8.99212 10.561L8.87695 10.1833ZM10.8793 10.1857L10.762 10.5632L10.3909 10.5627L10.691 10.7914L10.5794 11.1503L10.8741 10.9309L11.1769 11.1616L11.0635 10.7898L11.3668 10.5639L10.9945 10.5634L10.8793 10.1857ZM1.86704 11.4575L1.74969 11.835L1.37864 11.8345L1.67872 12.0632L1.56711 12.4221L1.86179 12.2027L2.16457 12.4334L2.05122 12.0616L2.35452 11.8357L1.98221 11.8352L1.86704 11.4575ZM3.86942 11.46L3.75207 11.8374L3.38102 11.8369L3.6811 12.0656L3.56949 12.4246L3.86417 12.2051L4.16696 12.4358L4.0536 12.0641L4.35691 11.8381L3.98459 11.8377L3.86942 11.46ZM5.87181 11.4624L5.75445 11.8398L5.3834 11.8394L5.68348 12.068L5.57187 12.427L5.86655 12.2076L6.16934 12.4383L6.05598 12.0665L6.35929 11.8406L5.98697 11.8401L5.87181 11.4624ZM7.87419 11.4648L7.75684 11.8423L7.38579 11.8418L7.68586 12.0705L7.57425 12.4295L7.86894 12.21L8.17172 12.4407L8.05837 12.0689L8.36167 11.843L7.98936 11.8426L7.87419 11.4648ZM9.87657 11.4673L9.75923 11.8447L9.38817 11.8443L9.68825 12.0729L9.57664 12.4319L9.87132 12.2125L10.1741 12.4432L10.0608 12.0714L10.3641 11.8455L9.99174 11.845L9.87657 11.4673ZM11.879 11.4697L11.7616 11.8472L11.3906 11.8467L11.6906 12.0754L11.579 12.4343L11.8737 12.2149L12.1765 12.4456L12.0631 12.0738L12.3664 11.8479L11.9941 11.8474L11.879 11.4697Z" fill="white"/>
</g>
<defs>
<clipPath id="clip0_1_51">
<rect width="24" height="24" fill="white"/>
</clipPath>
</defs>
</svg>
