<svg width="33" height="33" viewBox="0 0 33 33" fill="none" xmlns="http://www.w3.org/2000/svg">
<path d="M4.66669 13.6666H28.6667M10 20.3333H11.3334M16.6667 20.3333H18M8.66669 25.6666H24.6667C25.7276 25.6666 26.745 25.2452 27.4951 24.4951C28.2453 23.7449 28.6667 22.7275 28.6667 21.6666V11C28.6667 9.9391 28.2453 8.92169 27.4951 8.17154C26.745 7.4214 25.7276 6.99997 24.6667 6.99997H8.66669C7.60582 6.99997 6.58841 7.4214 5.83826 8.17154C5.08811 8.92169 4.66669 9.9391 4.66669 11V21.6666C4.66669 22.7275 5.08811 23.7449 5.83826 24.4951C6.58841 25.2452 7.60582 25.6666 8.66669 25.6666Z" stroke="#7F7F7F" stroke-width="2.66667" stroke-linecap="round" stroke-linejoin="round"/>
</svg>
