<svg width="33" height="32" viewBox="0 0 33 32" fill="none" xmlns="http://www.w3.org/2000/svg">
<g clip-path="url(#clip0_1_93)">
<path d="M3.33331 11.992C3.33261 10.9416 3.53912 9.90137 3.941 8.93089C4.34289 7.96042 4.93227 7.07876 5.67538 6.33639C6.41849 5.59402 7.30075 5.00552 8.27162 4.60461C9.2425 4.20369 10.2829 3.99823 11.3333 3.99998H22C26.4173 3.99998 30 7.59331 30 11.992V28H11.3333C6.91598 28 3.33331 24.4066 3.33331 20.008V11.992ZM27.3333 25.3333V11.992C27.3298 10.5793 26.7665 9.22563 25.7668 8.22747C24.7672 7.22931 23.4127 6.66805 22 6.66665H11.3333C10.6331 6.66489 9.93945 6.80138 9.29211 7.06828C8.64477 7.33518 8.05649 7.72725 7.561 8.222C7.0655 8.71675 6.67255 9.30444 6.40468 9.95138C6.13681 10.5983 5.99928 11.2918 5.99998 11.992V20.008C6.00351 21.4206 6.5668 22.7743 7.56646 23.7725C8.56612 24.7706 9.92064 25.3319 11.3333 25.3333H27.3333ZM19.3333 14.6666H22V17.3333H19.3333V14.6666ZM11.3333 14.6666H14V17.3333H11.3333V14.6666Z" fill="#7F7F7F"/>
</g>
<defs>
<clipPath id="clip0_1_93">
<rect width="32" height="32" fill="white" transform="translate(0.666687 -3.05176e-05)"/>
</clipPath>
</defs>
</svg>
