<svg width="33" height="33" viewBox="0 0 33 33" fill="none" xmlns="http://www.w3.org/2000/svg">
<path d="M4.66669 5.99997C4.66669 5.64634 4.80716 5.30721 5.05721 5.05716C5.30726 4.80711 5.6464 4.66663 6.00002 4.66663H27.3334C27.687 4.66663 28.0261 4.80711 28.2762 5.05716C28.5262 5.30721 28.6667 5.64634 28.6667 5.99997V9.44797C28.6666 9.80156 28.5261 10.1406 28.276 10.3906L19.724 18.9426C19.474 19.1926 19.3334 19.5317 19.3334 19.8853V23.3333L14 28.6666V19.8853C13.9999 19.5317 13.8594 19.1926 13.6094 18.9426L5.05735 10.3906C4.80729 10.1406 4.66676 9.80156 4.66669 9.44797V5.99997Z" stroke="#7F7F7F" stroke-width="2.66667" stroke-linecap="round" stroke-linejoin="round"/>
</svg>
