<svg width="33" height="33" viewBox="0 0 33 33" fill="none" xmlns="http://www.w3.org/2000/svg">
<g clip-path="url(#clip0_1_121)">
<path d="M5.11998 23C4.55634 22.0253 4.1182 20.9832 3.81598 19.8986C4.47372 19.5641 5.0261 19.0541 5.41202 18.4252C5.79793 17.7962 6.00233 17.0727 6.00261 16.3348C6.00288 15.5969 5.79902 14.8732 5.41358 14.244C5.02814 13.6147 4.47614 13.1043 3.81865 12.7693C4.42136 10.59 5.56895 8.59991 7.15331 6.98664C7.7721 7.38894 8.49014 7.61219 9.22795 7.63168C9.96576 7.65117 10.6946 7.46615 11.3338 7.09708C11.9729 6.72802 12.4975 6.1893 12.8495 5.54056C13.2014 4.89182 13.3671 4.15834 13.328 3.42131C15.5175 2.85547 17.815 2.85639 20.004 3.42397C19.9653 4.16099 20.1312 4.89436 20.4834 5.54292C20.8357 6.19148 21.3605 6.72994 21.9998 7.09872C22.639 7.4675 23.3679 7.65222 24.1057 7.63244C24.8434 7.61266 25.5614 7.38915 26.18 6.98664C26.952 7.77331 27.6373 8.66797 28.2133 9.66664C28.7906 10.6653 29.2226 11.7066 29.5173 12.768C28.8596 13.1025 28.3072 13.6125 27.9213 14.2414C27.5354 14.8704 27.331 15.5939 27.3307 16.3318C27.3304 17.0698 27.5343 17.7934 27.9197 18.4226C28.3052 19.0519 28.8572 19.5623 29.5146 19.8973C28.9119 22.0767 27.7643 24.0667 26.18 25.68C25.5612 25.2777 24.8432 25.0544 24.1053 25.0349C23.3675 25.0154 22.6387 25.2005 21.9995 25.5695C21.3604 25.9386 20.8358 26.4773 20.4838 27.1261C20.1318 27.7748 19.9662 28.5083 20.0053 29.2453C17.8158 29.8111 15.5183 29.8102 13.3293 29.2426C13.368 28.5056 13.2021 27.7723 12.8499 27.1237C12.4976 26.4751 11.9728 25.9367 11.3335 25.5679C10.6942 25.1991 9.96538 25.0144 9.22761 25.0342C8.48984 25.054 7.77193 25.2775 7.15331 25.68C6.3653 24.8759 5.68211 23.9754 5.11998 23ZM12.6666 23.2613C14.0875 24.0808 15.1558 25.396 15.6666 26.9546C16.332 27.0173 17 27.0186 17.6653 26.956C18.1765 25.3971 19.2453 24.0819 20.6666 23.2626C22.0869 22.4409 23.7607 22.1726 25.3666 22.5093C25.7533 21.9653 26.0866 21.3853 26.364 20.7786C25.2699 19.5566 24.6655 17.9736 24.6666 16.3333C24.6666 14.6533 25.2933 13.084 26.364 11.888C26.0847 11.2815 25.7499 10.7021 25.364 10.1573C23.759 10.4937 22.0864 10.2259 20.6666 9.40531C19.2458 8.5858 18.1775 7.27062 17.6666 5.71197C17.0013 5.64931 16.3333 5.64797 15.668 5.71064C15.1568 7.2695 14.088 8.58472 12.6666 9.40397C11.2464 10.2257 9.57261 10.494 7.96665 10.1573C7.58073 10.7017 7.24682 11.2811 6.96931 11.888C8.06341 13.1101 8.66782 14.693 8.66665 16.3333C8.66665 18.0133 8.03998 19.5826 6.96931 20.7786C7.24861 21.3851 7.58336 21.9645 7.96931 22.5093C9.57427 22.1729 11.2469 22.4407 12.6666 23.2613ZM16.6666 20.3333C15.6058 20.3333 14.5884 19.9119 13.8382 19.1617C13.0881 18.4116 12.6666 17.3942 12.6666 16.3333C12.6666 15.2724 13.0881 14.255 13.8382 13.5049C14.5884 12.7547 15.6058 12.3333 16.6666 12.3333C17.7275 12.3333 18.7449 12.7547 19.4951 13.5049C20.2452 14.255 20.6666 15.2724 20.6666 16.3333C20.6666 17.3942 20.2452 18.4116 19.4951 19.1617C18.7449 19.9119 17.7275 20.3333 16.6666 20.3333ZM16.6666 17.6666C17.0203 17.6666 17.3594 17.5262 17.6095 17.2761C17.8595 17.0261 18 16.6869 18 16.3333C18 15.9797 17.8595 15.6405 17.6095 15.3905C17.3594 15.1404 17.0203 15 16.6666 15C16.313 15 15.9739 15.1404 15.7238 15.3905C15.4738 15.6405 15.3333 15.9797 15.3333 16.3333C15.3333 16.6869 15.4738 17.0261 15.7238 17.2761C15.9739 17.5262 16.313 17.6666 16.6666 17.6666Z" fill="#7F7F7F"/>
</g>
<defs>
<clipPath id="clip0_1_121">
<rect width="32" height="32" fill="white" transform="translate(0.666687 0.333302)"/>
</clipPath>
</defs>
</svg>
