<svg width="33" height="33" viewBox="0 0 33 33" fill="none" xmlns="http://www.w3.org/2000/svg">
<path d="M5.46661 6.7333C5.46661 6.30895 5.63518 5.90199 5.93524 5.60193C6.2353 5.30187 6.64227 5.1333 7.06661 5.1333H26.2666C26.691 5.1333 27.0979 5.30187 27.398 5.60193C27.698 5.90199 27.8666 6.30895 27.8666 6.7333V9.9333C27.8666 10.3576 27.698 10.7646 27.398 11.0647C27.0979 11.3647 26.691 11.5333 26.2666 11.5333H7.06661C6.64227 11.5333 6.2353 11.3647 5.93524 11.0647C5.63518 10.7646 5.46661 10.3576 5.46661 9.9333V6.7333ZM5.46661 16.3333C5.46661 15.909 5.63518 15.502 5.93524 15.2019C6.2353 14.9019 6.64227 14.7333 7.06661 14.7333H16.6666C17.091 14.7333 17.4979 14.9019 17.798 15.2019C18.098 15.502 18.2666 15.909 18.2666 16.3333V25.9333C18.2666 26.3576 18.098 26.7646 17.798 27.0647C17.4979 27.3647 17.091 27.5333 16.6666 27.5333H7.06661C6.64227 27.5333 6.2353 27.3647 5.93524 27.0647C5.63518 26.7646 5.46661 26.3576 5.46661 25.9333V16.3333ZM23.0666 14.7333C22.6423 14.7333 22.2353 14.9019 21.9352 15.2019C21.6352 15.502 21.4666 15.909 21.4666 16.3333V25.9333C21.4666 26.3576 21.6352 26.7646 21.9352 27.0647C22.2353 27.3647 22.6423 27.5333 23.0666 27.5333H26.2666C26.691 27.5333 27.0979 27.3647 27.398 27.0647C27.698 26.7646 27.8666 26.3576 27.8666 25.9333V16.3333C27.8666 15.909 27.698 15.502 27.398 15.2019C27.0979 14.9019 26.691 14.7333 26.2666 14.7333H23.0666Z" fill="white"/>
</svg>
