<svg width="41" height="41" viewBox="0 0 41 41" fill="none" xmlns="http://www.w3.org/2000/svg">
<path fill-rule="evenodd" clip-rule="evenodd" d="M26.0557 12.0186C24.4112 10.9198 22.4778 10.3333 20.5 10.3333V0.333313C24.4556 0.333313 28.3224 1.50629 31.6114 3.70392C34.9004 5.90154 37.4638 9.02512 38.9776 12.6796C40.4913 16.3341 40.8874 20.3555 40.1157 24.2351C39.344 28.1147 37.4392 31.6784 34.6421 34.4754C31.8451 37.2725 28.2814 39.1773 24.4018 39.949C20.5222 40.7207 16.5008 40.3246 12.8463 38.8109C9.1918 37.2971 6.06823 34.7337 3.87061 31.4447C1.67298 28.1557 0.5 24.2889 0.5 20.3333H10.5C10.5 22.3111 11.0865 24.2445 12.1853 25.889C13.2841 27.5335 14.8459 28.8152 16.6732 29.5721C18.5004 30.329 20.5111 30.527 22.4509 30.1411C24.3907 29.7553 26.1725 28.8029 27.5711 27.4044C28.9696 26.0058 29.922 24.224 30.3078 22.2842C30.6937 20.3444 30.4957 18.3337 29.7388 16.5065C28.9819 14.6792 27.7002 13.1174 26.0557 12.0186Z" fill="white"/>
<path fill-rule="evenodd" clip-rule="evenodd" d="M10.6364 0.333318C10.6364 1.64654 10.3742 2.9469 9.86478 4.16016C9.35537 5.37341 8.60874 6.4758 7.66749 7.40439C6.72625 8.33298 5.60882 9.06957 4.37902 9.57212C3.14921 10.0747 1.83112 10.3333 0.5 10.3333L0.5 20.3333C3.16225 20.3333 5.79843 19.816 8.25804 18.8109C10.7177 17.8058 12.9525 16.3326 14.8349 14.4754C16.7175 12.6183 18.2108 10.4135 19.2296 7.98699C20.2484 5.56047 20.7727 2.95975 20.7727 0.333313L10.6364 0.333318Z" fill="white"/>
</svg>
