<svg width="50" height="50" viewBox="0 0 50 50" fill="none" xmlns="http://www.w3.org/2000/svg">
<rect x="0.5" y="0.5" width="49" height="49" rx="15.5" fill="white"/>
<rect x="0.5" y="0.5" width="49" height="49" rx="15.5" stroke="#E6E6E6"/>
<path d="M25 30C22.24 30 20 27.76 20 25C20 22.24 22.24 20 25 20C27.76 20 30 22.24 30 25C30 27.76 27.76 30 25 30ZM25 22C23.3467 22 22 23.3467 22 25C22 26.6533 23.3467 28 25 28C26.6533 28 28 26.6533 28 25C28 23.3467 26.6533 22 25 22Z" fill="#161616"/>
<path d="M29.28 38.5871C29 38.5871 28.72 38.5471 28.44 38.4804C27.6134 38.2537 26.92 37.7337 26.48 37.0004L26.32 36.7337C25.5334 35.3737 24.4534 35.3737 23.6667 36.7337L23.52 36.9871C23.08 37.7337 22.3867 38.2671 21.56 38.4804C20.72 38.7071 19.8534 38.5871 19.12 38.1471L16.8267 36.8271C16.0134 36.3604 15.4267 35.6004 15.1734 34.6804C14.9334 33.7604 15.0534 32.8137 15.52 32.0004C15.9067 31.3204 16.0134 30.7071 15.7867 30.3204C15.56 29.9337 14.9867 29.7071 14.2 29.7071C12.2534 29.7071 10.6667 28.1204 10.6667 26.1737V23.8271C10.6667 21.8804 12.2534 20.2937 14.2 20.2937C14.9867 20.2937 15.56 20.0671 15.7867 19.6804C16.0134 19.2937 15.92 18.6804 15.52 18.0004C15.0534 17.1871 14.9334 16.2271 15.1734 15.3204C15.4134 14.4004 16 13.6404 16.8267 13.1737L19.1334 11.8537C20.64 10.9604 22.6267 11.4804 23.5334 13.0137L23.6934 13.2804C24.48 14.6404 25.56 14.6404 26.3467 13.2804L26.4934 13.0271C27.4 11.4804 29.3867 10.9604 30.9067 11.8671L33.2 13.1871C34.0134 13.6537 34.6 14.4137 34.8534 15.3337C35.0934 16.2537 34.9734 17.2004 34.5067 18.0137C34.12 18.6937 34.0134 19.3071 34.24 19.6937C34.4667 20.0804 35.04 20.3071 35.8267 20.3071C37.7734 20.3071 39.36 21.8937 39.36 23.8404V26.1871C39.36 28.1337 37.7734 29.7204 35.8267 29.7204C35.04 29.7204 34.4667 29.9471 34.24 30.3337C34.0134 30.7204 34.1067 31.3337 34.5067 32.0137C34.9734 32.8271 35.1067 33.7871 34.8534 34.6937C34.6134 35.6137 34.0267 36.3737 33.2 36.8404L30.8934 38.1604C30.3867 38.4404 29.84 38.5871 29.28 38.5871ZM25 33.6537C26.1867 33.6537 27.2934 34.4004 28.0534 35.7204L28.2 35.9737C28.36 36.2537 28.6267 36.4537 28.9467 36.5337C29.2667 36.6137 29.5867 36.5737 29.8534 36.4137L32.16 35.0804C32.5067 34.8804 32.7734 34.5471 32.88 34.1471C32.9867 33.7471 32.9334 33.3337 32.7334 32.9871C31.9734 31.6804 31.88 30.3337 32.4667 29.3071C33.0534 28.2804 34.2667 27.6937 35.7867 27.6937C36.64 27.6937 37.32 27.0137 37.32 26.1604V23.8137C37.32 22.9737 36.64 22.2804 35.7867 22.2804C34.2667 22.2804 33.0534 21.6937 32.4667 20.6671C31.88 19.6404 31.9734 18.2937 32.7334 16.9871C32.9334 16.6404 32.9867 16.2271 32.88 15.8271C32.7734 15.4271 32.52 15.1071 32.1734 14.8937L29.8667 13.5737C29.2934 13.2271 28.5334 13.4271 28.1867 14.0137L28.04 14.2671C27.28 15.5871 26.1734 16.3337 24.9867 16.3337C23.8 16.3337 22.6934 15.5871 21.9334 14.2671L21.7867 14.0004C21.4534 13.4404 20.7067 13.2404 20.1334 13.5737L17.8267 14.9071C17.48 15.1071 17.2134 15.4404 17.1067 15.8404C17 16.2404 17.0534 16.6537 17.2534 17.0004C18.0134 18.3071 18.1067 19.6537 17.52 20.6804C16.9334 21.7071 15.72 22.2937 14.2 22.2937C13.3467 22.2937 12.6667 22.9737 12.6667 23.8271V26.1737C12.6667 27.0137 13.3467 27.7071 14.2 27.7071C15.72 27.7071 16.9334 28.2937 17.52 29.3204C18.1067 30.3471 18.0134 31.6937 17.2534 33.0004C17.0534 33.3471 17 33.7604 17.1067 34.1604C17.2134 34.5604 17.4667 34.8804 17.8134 35.0937L20.12 36.4137C20.4 36.5871 20.7334 36.6271 21.04 36.5471C21.36 36.4671 21.6267 36.2537 21.8 35.9737L21.9467 35.7204C22.7067 34.4137 23.8134 33.6537 25 33.6537Z" fill="#161616"/>
</svg>
