<svg width="29" height="30" viewBox="0 0 29 30" fill="none" xmlns="http://www.w3.org/2000/svg">
<path d="M25.5182 25.28L20.0418 19.8047C21.6291 17.899 22.4206 15.4548 22.2517 12.9805C22.0828 10.5061 20.9664 8.19218 19.1348 6.51996C17.3033 4.84774 14.8975 3.94602 12.4181 4.00237C9.93861 4.05872 7.57632 5.0688 5.82262 6.8225C4.06893 8.5762 3.05884 10.9385 3.00249 13.418C2.94614 15.8974 3.84786 18.3032 5.52008 20.1347C7.1923 21.9663 9.50626 23.0826 11.9806 23.2516C14.4549 23.4205 16.8992 22.629 18.8048 21.0417L24.2801 26.5181C24.3614 26.5994 24.4579 26.6639 24.5641 26.7079C24.6704 26.7519 24.7842 26.7745 24.8992 26.7745C25.0141 26.7745 25.128 26.7519 25.2342 26.7079C25.3404 26.6639 25.4369 26.5994 25.5182 26.5181C25.5995 26.4368 25.664 26.3403 25.708 26.2341C25.752 26.1279 25.7747 26.014 25.7747 25.8991C25.7747 25.7841 25.752 25.6702 25.708 25.564C25.664 25.4578 25.5995 25.3613 25.5182 25.28ZM4.77418 13.6491C4.77418 12.0915 5.23604 10.569 6.10135 9.27394C6.96667 7.9789 8.19658 6.96954 9.63554 6.3735C11.0745 5.77746 12.6579 5.62151 14.1855 5.92537C15.7131 6.22923 17.1163 6.97925 18.2176 8.08059C19.319 9.18193 20.069 10.5851 20.3729 12.1127C20.6767 13.6403 20.5208 15.2237 19.9247 16.6627C19.3287 18.1017 18.3193 19.3316 17.0243 20.1969C15.7293 21.0622 14.2067 21.5241 12.6492 21.5241C10.5613 21.5217 8.55961 20.6913 7.08327 19.215C5.60692 17.7386 4.77649 15.7369 4.77418 13.6491Z" fill="#A3A3A3"/>
</svg>
